<?xml version="1.0" standalone="no"?>
<!DOCTYPE svg PUBLIC "-//W3C//DTD SVG 20010904//EN"
 "http://www.w3.org/TR/2001/REC-SVG-20010904/DTD/svg10.dtd">
<svg version="1.0" xmlns="http://www.w3.org/2000/svg"
 width="626.000000pt" height="626.000000pt" viewBox="0 0 626.000000 626.000000"
 preserveAspectRatio="xMidYMid meet">

<g transform="translate(0.000000,626.000000) scale(0.100000,-0.100000)"
fill="#000000" stroke="none">
<path d="M4615 5070 c-81 -12 -148 -69 -170 -144 -41 -137 12 -377 96 -437 36
-25 49 -16 49 38 0 27 -4 32 -27 35 -23 2 -33 14 -56 59 -16 31 -28 72 -28 90
1 19 1 59 1 90 l0 56 87 41 c48 22 91 38 95 35 15 -9 38 -74 54 -156 29 -142
4 -293 -71 -419 l-34 -58 62 31 c81 41 148 112 197 213 53 107 68 185 52 277
-14 81 -32 121 -76 167 -57 62 -149 94 -231 82z"/>
<path d="M5225 4960 c3 -5 8 -10 11 -10 2 0 4 5 4 10 0 6 -5 10 -11 10 -5 0
-7 -4 -4 -10z"/>
<path d="M5179 4932 c-13 -16 -13 -16 5 -2 18 14 19 13 13 -2 -3 -10 -2 -18 3
-18 12 0 13 27 1 34 -5 3 -15 -2 -22 -12z"/>
<path d="M5458 4914 c-8 -8 3 -44 13 -44 5 0 9 -9 9 -19 0 -11 9 -40 19 -64
11 -25 17 -48 13 -52 -4 -3 1 -11 11 -16 9 -6 17 -19 17 -30 0 -12 -4 -17 -11
-13 -8 4 -8 0 0 -15 12 -22 6 -45 -9 -36 -4 3 -7 -3 -6 -13 1 -11 -5 -16 -19
-15 -11 1 -14 0 -8 -3 10 -4 10 -11 2 -26 -9 -17 -13 -18 -21 -7 -8 12 -9 11
-5 -1 2 -8 0 -23 -5 -32 -19 -38 3 -15 55 57 l54 76 -49 127 c-55 139 -52 134
-60 126z"/>
<path d="M5223 4835 c0 -44 2 -61 4 -37 2 23 2 59 0 80 -2 20 -4 1 -4 -43z"/>
<path d="M5398 4833 c7 -3 16 -2 19 1 4 3 -2 6 -13 5 -11 0 -14 -3 -6 -6z"/>
<path d="M820 4817 c-65 -23 -106 -125 -81 -206 6 -21 31 -68 56 -107 41 -63
45 -66 45 -39 0 17 -9 41 -20 55 -20 26 -26 65 -11 74 5 3 20 -4 35 -15 29
-23 30 -22 16 17 -12 30 -5 64 13 64 38 0 95 27 133 62 46 42 54 58 30 58 -7
0 -33 9 -58 20 -59 26 -116 32 -158 17z"/>
<path d="M5260 4826 c0 -2 7 -7 16 -10 8 -3 12 -2 9 4 -6 10 -25 14 -25 6z"/>
<path d="M3470 4813 c8 -3 24 -13 35 -22 20 -16 20 -16 1 7 -11 12 -26 22 -35
21 -14 0 -14 -1 -1 -6z"/>
<path d="M5330 4782 c0 -5 7 -9 15 -9 8 0 12 4 9 9 -3 4 -9 8 -15 8 -5 0 -9
-4 -9 -8z"/>
<path d="M5473 4710 c0 -41 2 -58 4 -37 2 20 2 54 0 75 -2 20 -4 3 -4 -38z"/>
<path d="M3493 4750 c-18 -8 -33 -20 -33 -26 0 -14 49 -48 57 -40 3 3 -6 11
-21 17 -30 14 -34 29 -7 29 17 0 49 27 40 33 -2 1 -19 -4 -36 -13z"/>
<path d="M3569 4724 l-24 -26 28 -20 c15 -11 27 -26 27 -34 0 -12 3 -12 14 -2
8 7 10 15 5 16 -5 2 -9 24 -9 48 0 51 -7 54 -41 18z m29 -38 c-3 -13 -6 -13
-22 0 -20 14 -20 14 0 28 16 13 19 13 22 0 2 -8 2 -20 0 -28z"/>
<path d="M3666 4649 c-10 -27 -16 -52 -13 -55 3 -3 13 18 22 46 22 67 14 75
-9 9z"/>
<path d="M3738 4661 c12 -11 27 -21 33 -23 7 -2 2 -18 -11 -41 -12 -21 -20
-40 -17 -43 3 -3 15 13 27 37 22 41 22 43 4 57 -11 7 -28 18 -39 23 -17 9 -17
7 3 -10z"/>
<path d="M5370 4666 c0 -2 8 -10 18 -17 15 -13 16 -12 3 4 -13 16 -21 21 -21
13z"/>
<path d="M2611 4486 c-8 -9 -10 -131 -9 -431 l3 -417 145 -84 c80 -46 150 -86
155 -88 6 -3 1 -11 -10 -18 -11 -7 -55 -48 -98 -92 -71 -72 -76 -79 -60 -92
10 -7 23 -14 30 -14 7 0 67 32 134 70 68 39 125 70 128 70 14 0 535 -307 538
-316 2 -6 -9 -17 -25 -23 -15 -7 -58 -45 -95 -85 l-66 -74 24 -16 c23 -15 28
-13 155 60 l130 76 80 -46 c98 -57 109 -54 138 39 l20 66 -24 352 c-13 193
-28 354 -32 358 -8 7 -1242 719 -1247 719 -1 0 -8 -6 -14 -14z m84 -105 c-2
-5 7 -13 21 -20 18 -8 23 -8 18 0 -4 8 0 8 15 0 22 -12 30 -27 9 -16 -7 4 -4
-1 7 -9 11 -9 25 -14 33 -11 8 3 10 0 6 -7 -5 -8 -2 -9 9 -5 9 3 19 1 23 -5 4
-7 3 -8 -4 -4 -7 4 -12 5 -12 2 0 -3 14 -13 31 -22 18 -9 28 -11 24 -4 -6 9
-2 9 14 1 11 -7 21 -14 21 -17 0 -3 -4 -2 -10 1 -5 3 -10 4 -10 2 0 -11 73
-47 82 -41 7 5 8 2 3 -6 -6 -10 -4 -12 9 -7 11 5 15 3 10 -5 -5 -8 -2 -9 9 -5
9 3 19 1 23 -5 4 -7 3 -8 -4 -4 -7 4 -12 5 -12 2 0 -3 14 -13 31 -22 23 -11
29 -12 24 -2 -4 7 2 2 13 -11 12 -15 24 -21 32 -16 9 6 11 4 5 -5 -6 -10 -4
-12 9 -7 9 4 14 3 11 -2 -3 -5 -1 -12 5 -16 12 -8 13 -45 1 -45 -11 0 -440
247 -462 266 -9 8 -19 11 -24 7 -4 -5 -2 2 4 15 6 12 16 22 22 22 6 0 7 5 3
12 -4 7 -3 8 5 4 6 -4 9 -11 6 -15z m448 -328 c109 -63 202 -111 208 -108 5 4
8 1 7 -7 -2 -7 5 -12 15 -11 10 0 16 -2 13 -5 -9 -9 54 -43 66 -36 6 4 8 3 5
-3 -8 -13 120 -86 136 -77 7 4 9 3 4 -1 -8 -10 203 -136 215 -129 4 3 8 -155
8 -351 0 -196 -4 -355 -9 -353 -4 2 -272 155 -595 342 l-586 339 0 348 0 348
158 -91 c86 -50 246 -142 355 -205z m525 -252 c3 -37 -21 -43 -39 -9 -10 18
-8 24 6 34 23 17 30 12 33 -25z m83 -31 c-4 -3 -11 -13 -14 -23 -9 -24 -28
-17 -44 14 -11 21 -10 25 10 30 23 6 62 -11 48 -21z m47 -45 c3 -36 -6 -43
-26 -23 -15 15 -16 48 -1 48 5 0 7 4 4 10 -3 5 0 7 7 5 8 -3 15 -21 16 -40z
m19 -27 c-3 -8 -6 -5 -6 6 -1 11 2 17 5 13 3 -3 4 -12 1 -19z m75 -520 c-7 -7
-12 -8 -12 -2 0 6 3 14 7 17 3 4 9 5 12 2 2 -3 -1 -11 -7 -17z m8 -63 c-7 -8
-16 -15 -21 -15 -13 0 -11 24 3 38 18 18 35 -3 18 -23z m0 -60 c-7 -8 -16 -15
-21 -15 -13 0 -11 24 3 38 18 18 35 -3 18 -23z"/>
<path d="M2780 3716 c0 -3 9 -10 20 -16 11 -6 20 -8 20 -6 0 3 -9 10 -20 16
-11 6 -20 8 -20 6z"/>
<path d="M2900 3646 c0 -3 9 -10 20 -16 11 -6 20 -8 20 -6 0 3 -9 10 -20 16
-11 6 -20 8 -20 6z"/>
<path d="M3556 3628 c-23 -33 -22 -140 2 -161 25 -23 35 -21 22 2 -5 11 -10
34 -10 51 0 26 3 31 16 26 10 -4 25 1 36 11 19 17 20 17 34 -2 17 -23 19 -135
3 -135 -8 0 -8 -5 1 -15 28 -34 40 -17 40 54 0 82 -8 107 -50 155 -37 42 -71
47 -94 14z"/>
<path d="M2970 3606 c0 -3 9 -10 20 -16 11 -6 20 -8 20 -6 0 3 -9 10 -20 16
-11 6 -20 8 -20 6z"/>
<path d="M3490 3291 c0 -6 5 -13 10 -16 6 -3 10 1 10 9 0 9 -4 16 -10 16 -5 0
-10 -4 -10 -9z"/>
<path d="M4818 3708 c-8 -12 -37 -34 -64 -48 -44 -22 -61 -25 -164 -25 -97 0
-122 3 -157 21 l-42 21 32 -41 c96 -122 249 -244 369 -293 57 -23 178 -44 178
-30 0 2 -7 41 -15 84 -18 97 -52 198 -92 277 l-29 58 -16 -24z"/>
<path d="M2275 3638 c36 -43 75 -125 75 -160 0 -27 1 -27 19 -10 11 9 31 25
45 35 67 47 -3 130 -138 161 l-29 7 28 -33z"/>
<path d="M2073 3630 c-18 -10 -45 -38 -60 -61 -56 -86 -39 -263 35 -351 48
-56 126 -74 163 -37 17 17 19 28 14 73 -8 60 2 89 43 123 26 22 26 23 14 80
-15 70 -56 140 -101 170 -42 28 -66 29 -108 3z"/>
<path d="M1030 3427 c0 -7 -25 -28 -56 -47 -50 -30 -64 -34 -124 -33 -65 1
-107 14 -122 37 -4 6 -8 -38 -8 -99 0 -60 -5 -126 -10 -145 -76 -284 -72 -266
-74 -445 -2 -295 11 -350 89 -370 33 -8 40 -7 56 14 22 27 23 61 4 116 -19 52
-19 135 0 282 20 147 27 174 78 296 38 90 64 127 52 75 -12 -56 -25 -196 -31
-343 -8 -187 -9 -185 88 -196 44 -5 72 -15 103 -38 24 -17 54 -31 68 -31 26 0
57 28 57 52 0 27 -40 68 -92 94 l-50 26 4 126 c4 112 11 150 57 327 28 110 55
226 58 257 l6 58 -47 -16 c-30 -10 -51 -13 -59 -7 -22 18 -47 23 -47 10z
m-327 -944 c-7 -2 -21 -2 -30 0 -10 3 -4 5 12 5 17 0 24 -2 18 -5z"/>
<path d="M2350 3398 c0 -15 5 -30 10 -33 13 -8 13 25 0 45 -8 12 -10 9 -10
-12z"/>
<path d="M2410 3342 c0 -5 9 -17 20 -27 16 -14 20 -15 20 -4 0 16 -19 39 -32
39 -4 0 -8 -4 -8 -8z"/>
<path d="M2306 3308 c-20 -28 -20 -54 -1 -62 22 -8 41 2 53 29 23 50 -21 77
-52 33z"/>
<path d="M1921 3227 c-19 -7 -43 -23 -53 -38 -20 -27 -47 -155 -48 -229 -1
-81 -5 -81 -145 3 -70 43 -131 77 -135 77 -14 0 -60 -60 -66 -86 -5 -20 0 -31
26 -52 24 -20 34 -40 41 -77 24 -129 41 -316 43 -484 l3 -184 119 -70 c65 -38
178 -104 249 -147 72 -43 148 -87 171 -98 l41 -21 64 47 64 47 -3 76 -3 77
-34 -11 c-19 -6 -38 -7 -42 -3 -5 4 -8 35 -8 69 0 48 3 61 14 59 8 -2 32 0 53
3 29 5 38 11 38 26 0 13 21 33 64 60 l64 40 6 82 c3 45 8 125 11 177 6 111 16
210 22 210 2 0 25 -11 51 -24 26 -13 79 -34 118 -46 79 -26 112 -22 149 14 20
20 25 21 46 10 13 -7 30 -13 37 -14 23 0 12 19 -19 35 -17 9 -28 19 -25 23 4
3 23 -4 44 -16 22 -12 43 -18 50 -13 9 5 -2 16 -33 32 -49 26 -57 39 -24 39
18 0 20 2 8 16 -11 13 -9 15 12 12 13 -2 25 2 26 7 1 6 -7 9 -17 8 -14 -2 -17
3 -13 18 4 14 11 18 22 14 12 -5 13 -3 4 5 -8 9 -5 25 13 64 34 74 33 79 -25
96 -27 7 -32 4 -62 -38 -18 -26 -43 -58 -56 -71 -12 -14 -19 -29 -16 -34 3 -5
-3 -7 -13 -3 -11 3 -25 2 -33 -3 -11 -7 -8 -10 10 -16 l23 -8 -23 -19 c-13
-10 -27 -16 -30 -12 -3 4 0 9 7 11 23 9 12 25 -13 21 -14 -3 -28 -1 -31 3 -3
5 1 9 8 9 10 0 10 2 -1 9 -8 5 -20 7 -28 4 -7 -3 -13 2 -13 11 0 9 -8 16 -20
16 -11 0 -20 4 -20 9 0 9 -37 32 -120 73 -25 13 -48 27 -51 31 -3 4 -10 7 -15
6 -21 -4 -34 2 -34 16 0 8 -7 15 -16 15 -14 0 -15 -2 -3 -17 13 -16 12 -17 -2
-5 -10 7 -52 13 -105 15 -112 3 -158 24 -190 87 -30 60 -72 78 -133 57z m-27
-372 c11 -8 16 -15 10 -15 -5 0 -18 7 -28 15 -11 8 -16 15 -10 15 5 0 18 -7
28 -15z m273 -267 c-3 -7 -5 -2 -5 12 0 14 2 19 5 13 2 -7 2 -19 0 -25z m20
-130 c-3 -7 -5 -2 -5 12 0 14 2 19 5 13 2 -7 2 -19 0 -25z m20 -205 c-3 -10
-5 -2 -5 17 0 19 2 27 5 18 2 -10 2 -26 0 -35z"/>
<path d="M4134 3138 c-63 -58 -106 -145 -111 -228 l-5 -65 59 -32 59 -32 87
50 87 51 0 116 0 117 -59 33 c-32 17 -61 32 -65 32 -4 0 -27 -19 -52 -42z m-8
-70 c-32 -37 -66 -117 -66 -155 0 -8 -4 -12 -9 -9 -21 14 30 138 77 188 40 43
39 24 -2 -24z m15 -34 c-12 -15 -26 -44 -31 -65 -6 -22 -15 -39 -20 -39 -12 0
5 54 30 95 12 19 26 35 32 35 5 0 0 -12 -11 -26z"/>
<path d="M2285 3159 c-11 -17 1 -21 15 -4 8 9 8 15 2 15 -6 0 -14 -5 -17 -11z"/>
<path d="M2416 3132 c-7 -11 62 -44 76 -36 5 3 -4 15 -21 25 -35 21 -47 23
-55 11z"/>
<path d="M2379 3110 c-11 -7 -10 -10 4 -16 10 -4 23 -2 28 3 14 14 -13 24 -32
13z"/>
<path d="M2420 3082 c0 -14 11 -21 26 -15 8 3 11 9 8 14 -7 11 -34 12 -34 1z"/>
<path d="M2506 3081 c-3 -5 1 -11 9 -15 15 -6 29 7 18 18 -9 9 -21 8 -27 -3z"/>
<path d="M2465 3061 c-7 -12 12 -24 25 -16 11 7 4 25 -10 25 -5 0 -11 -4 -15
-9z"/>
<path d="M2549 3060 c-11 -7 -10 -10 4 -16 10 -4 23 -2 28 3 14 14 -13 24 -32
13z"/>
<path d="M2630 3056 c0 -2 7 -7 16 -10 8 -3 12 -2 9 4 -6 10 -25 14 -25 6z"/>
<path d="M2506 3031 c-3 -5 0 -11 8 -14 15 -6 26 1 26 15 0 11 -27 10 -34 -1z"/>
<path d="M2592 3031 c-11 -7 -11 -9 0 -13 18 -7 39 2 32 13 -6 11 -15 11 -32
0z"/>
<path d="M2551 3010 c-9 -5 -8 -9 5 -14 9 -4 21 -3 26 2 12 12 -15 23 -31 12z"/>
<path d="M2635 3011 c-7 -12 12 -24 25 -16 11 7 4 25 -10 25 -5 0 -11 -4 -15
-9z"/>
<path d="M2590 2980 c0 -5 9 -10 21 -10 11 0 17 5 14 10 -3 6 -13 10 -21 10
-8 0 -14 -4 -14 -10z"/>
<path d="M2676 2981 c-3 -5 0 -11 7 -13 17 -7 38 2 31 13 -7 12 -31 12 -38 0z"/>
<path d="M2635 2961 c-8 -14 10 -22 30 -15 13 5 14 8 3 15 -17 11 -26 11 -33
0z"/>
<path d="M2719 2960 c-11 -7 -10 -10 4 -16 10 -4 23 -2 28 3 14 14 -13 24 -32
13z"/>
<path d="M2680 2930 c0 -5 9 -10 21 -10 11 0 17 5 14 10 -3 6 -13 10 -21 10
-8 0 -14 -4 -14 -10z"/>
<path d="M3750 2871 c0 -5 5 -13 10 -16 6 -3 10 -2 10 4 0 5 -4 13 -10 16 -5
3 -10 2 -10 -4z"/>
<path d="M3675 2840 c-27 -17 -45 -30 -40 -30 6 0 33 14 60 30 28 16 46 30 40
29 -5 0 -32 -13 -60 -29z"/>
<path d="M2935 2830 c-3 -5 3 -10 14 -10 12 0 21 5 21 10 0 6 -6 10 -14 10 -8
0 -18 -4 -21 -10z"/>
<path d="M2895 2810 c-6 -9 44 -40 65 -40 19 0 10 16 -19 33 -34 20 -38 20
-46 7z"/>
<path d="M2979 2810 c-11 -7 -10 -10 4 -16 10 -4 23 -2 28 3 14 14 -13 24 -32
13z"/>
<path d="M2815 2710 c-3 -5 3 -10 14 -10 12 0 21 5 21 10 0 6 -6 10 -14 10 -8
0 -18 -4 -21 -10z"/>
<path d="M3078 2664 c-54 -31 -98 -60 -98 -64 0 -12 188 -120 208 -120 9 1 61
27 116 59 98 58 98 59 75 74 -71 45 -182 107 -192 107 -7 0 -56 -25 -109 -56z
m126 -25 l26 -21 -34 -36 c-33 -33 -38 -35 -72 -26 -21 5 -39 14 -41 21 -6 16
56 83 77 83 9 0 29 -9 44 -21z"/>
<path d="M4297 2623 c-5 -8 33 -303 39 -312 2 -2 9 -1 17 2 11 4 10 31 -7 158
-19 137 -32 179 -49 152z"/>
<path d="M2733 2283 c-9 -3 -13 -26 -13 -64 0 -32 2 -59 4 -59 19 0 94 34 104
47 20 28 14 42 -28 63 -41 21 -46 22 -67 13z"/>
<path d="M2565 2208 c-38 -22 -100 -55 -137 -75 l-68 -35 0 -59 c0 -32 3 -59
7 -59 3 0 66 35 140 77 l133 77 0 58 c0 32 -1 58 -2 57 -2 -1 -34 -19 -73 -41z"/>
<path d="M3210 2216 c0 -8 172 -107 177 -102 3 2 -26 22 -64 44 -89 51 -113
64 -113 58z"/>
<path d="M3788 2098 c-57 -15 -88 -49 -88 -98 0 -31 6 -47 26 -65 54 -50 189
-56 256 -11 29 19 33 28 36 72 2 40 -1 54 -17 68 -45 41 -134 55 -213 34z
m171 -47 c67 -31 67 -70 0 -103 -42 -22 -148 -24 -187 -4 -67 35 -74 74 -18
103 64 34 141 35 205 4z"/>
<path d="M2590 1975 c-48 -28 -94 -47 -127 -52 -38 -6 -44 -33 -17 -71 9 -13
14 -24 13 -26 -2 -1 -70 -40 -151 -86 -132 -75 -146 -86 -136 -103 5 -11 8
-30 5 -44 -6 -30 -5 -30 119 42 52 30 97 55 100 55 2 0 13 -9 25 -21 11 -11
30 -19 42 -17 27 4 54 54 41 77 -5 9 -7 36 -4 60 5 43 6 44 71 70 98 39 99 40
92 89 -5 34 -9 42 -27 42 -11 0 -32 -7 -46 -15z m-96 -264 c8 -12 -30 -58 -39
-49 -12 11 4 58 20 58 7 0 16 -4 19 -9z"/>
<path d="M4448 1677 c3 -174 2 -184 -18 -202 -24 -22 -26 -48 -5 -65 9 -7 14
-22 13 -34 -3 -18 3 -21 38 -24 34 -3 41 0 41 15 0 36 3 43 18 43 9 0 15 9 15
24 0 13 -7 29 -15 36 -12 10 -15 46 -15 201 l0 189 -37 0 -38 0 3 -183z"/>
<path d="M2855 1843 c-11 -3 -27 -11 -35 -19 -23 -20 -86 -44 -115 -44 -24 0
-26 -3 -23 -37 5 -57 35 -63 132 -28 89 32 139 73 134 107 -2 19 -10 23 -38
25 -19 0 -44 -1 -55 -4z"/>
<path d="M1654 1832 c-6 -4 -14 -36 -17 -71 -6 -52 -4 -68 10 -83 21 -23 48
-23 70 1 18 19 20 19 113 -35 l95 -54 7 26 c4 14 12 31 18 38 8 11 -20 31
-132 96 -79 46 -145 84 -148 86 -3 1 -11 0 -16 -4z m27 -123 c7 -15 8 -24 0
-32 -14 -14 -41 9 -41 34 0 26 27 24 41 -2z"/>
<path d="M3810 1806 c-10 -13 -10 -19 0 -32 12 -14 15 -14 29 0 14 15 14 17 0
32 -14 14 -17 14 -29 0z"/>
<path d="M3861 1801 c7 -10 20 -23 30 -29 14 -9 20 -6 35 16 9 15 13 24 9 20
-5 -4 -14 -3 -22 3 -10 9 -17 8 -28 -1 -10 -9 -15 -9 -15 -1 0 6 -5 11 -10 11
-6 0 -6 -7 1 -19z"/>
<path d="M3929 1771 c-19 -15 -21 -22 -12 -32 18 -18 43 -3 41 26 -1 14 -3 25
-4 25 -1 0 -12 -9 -25 -19z"/>
<path d="M3772 1767 c-10 -11 -9 -17 3 -27 24 -20 45 4 24 26 -14 13 -17 13
-27 1z"/>
<path d="M3842 1768 c-9 -9 -7 -17 10 -35 22 -24 52 -30 63 -14 10 16 -15 23
-33 9 -15 -12 -16 -11 -3 5 11 14 11 20 1 32 -15 18 -22 19 -38 3z"/>
<path d="M3750 1727 c0 -26 39 -50 89 -55 58 -5 93 2 115 24 27 26 18 35 -16
17 -48 -24 -121 -22 -158 5 -21 16 -30 19 -30 9z"/>
<path d="M3806 1731 c-3 -5 1 -12 10 -15 27 -11 37 -7 24 9 -14 17 -26 19 -34
6z"/>
<path d="M2143 1543 c-17 -6 -17 -81 0 -85 7 -2 72 -37 144 -78 128 -73 131
-75 126 -105 -4 -23 1 -35 20 -53 24 -23 26 -23 52 -6 20 13 25 22 20 38 -4
12 -9 41 -12 66 l-5 45 -156 90 c-164 94 -169 97 -189 88z m318 -284 c7 -15 8
-24 0 -32 -14 -14 -41 9 -41 34 0 26 27 24 41 -2z"/>
<path d="M1933 1529 c-6 -6 -71 -46 -144 -88 l-134 -77 -8 -63 c-9 -70 0 -91
39 -91 28 0 58 50 49 80 -5 15 16 31 125 92 l130 73 -2 40 c-2 31 -7 41 -23
43 -11 1 -25 -2 -32 -9z m-209 -257 c6 -11 -21 -52 -35 -52 -10 0 -13 43 -2
53 9 10 31 9 37 -1z"/>
<path d="M4210 1501 c0 -10 6 -21 13 -24 7 -3 12 4 12 19 0 13 -6 24 -12 24
-7 0 -13 -9 -13 -19z"/>
<path d="M4688 1504 c-12 -11 -10 -21 6 -27 8 -3 20 2 28 11 12 15 11 16 -4 4
-14 -11 -17 -10 -20 3 -1 9 -6 13 -10 9z"/>
<path d="M4256 1247 c3 -10 9 -15 12 -12 3 3 0 11 -7 18 -10 9 -11 8 -5 -6z"/>
<path d="M4210 1236 c0 -7 6 -18 13 -24 9 -8 12 -4 12 14 0 13 -6 24 -12 24
-7 0 -13 -6 -13 -14z"/>
<path d="M4680 1231 c0 -26 26 -34 42 -13 12 15 11 16 -4 3 -16 -12 -18 -11
-18 8 0 11 -4 21 -10 21 -5 0 -10 -9 -10 -19z"/>
</g>
</svg>
