<?xml version="1.0" standalone="no"?>
<!DOCTYPE svg PUBLIC "-//W3C//DTD SVG 20010904//EN"
 "http://www.w3.org/TR/2001/REC-SVG-20010904/DTD/svg10.dtd">
<svg version="1.0" xmlns="http://www.w3.org/2000/svg"
 width="450.000000pt" height="450.000000pt" viewBox="0 0 450.000000 450.000000"
 preserveAspectRatio="xMidYMid meet">

<g transform="translate(0.000000,450.000000) scale(0.100000,-0.100000)"
fill="#000000" stroke="none">
<path d="M0 2250 l0 -2250 2250 0 2250 0 0 2250 0 2250 -2250 0 -2250 0 0
-2250z m3654 1410 c13 -13 85 -516 146 -1030 18 -144 90 -705 95 -737 4 -24 1
-37 -15 -53 -19 -19 -31 -20 -326 -20 l-306 0 6 -37 c3 -21 13 -110 21 -198
34 -345 97 -624 180 -800 41 -86 43 -109 13 -129 -52 -33 -292 -81 -322 -64
-22 12 -20 54 3 77 10 10 46 37 79 60 34 22 63 45 67 50 6 11 -10 49 -128 296
-47 99 -99 221 -116 270 -43 130 -108 393 -126 515 -17 114 -38 181 -61 201
-9 7 -5 -8 10 -37 16 -32 30 -87 40 -159 l15 -110 -45 -165 -46 -165 -8 -330
c-5 -202 -5 -334 1 -341 16 -20 16 -124 -1 -134 -23 -14 -114 -24 -233 -24
-85 -1 -110 2 -117 14 -27 42 9 77 123 120 48 18 87 37 87 42 0 6 -23 152 -51
327 -56 347 -56 356 -19 572 11 63 20 122 20 132 0 16 -24 17 -342 19 l-343 3
343 2 c261 3 344 6 347 16 3 6 20 110 39 230 25 161 32 227 25 255 -5 20 -9
53 -9 72 0 44 -6 38 -80 -97 -69 -126 -90 -142 -126 -99 -16 18 -33 26 -57 26
-31 0 -36 -5 -80 -79 l-47 -79 -62 1 c-54 0 -64 -3 -77 -24 -35 -53 -48 -59
-114 -57 l-62 2 62 3 c59 4 63 6 92 45 17 23 28 45 25 49 -10 17 17 49 40 49
18 0 27 -8 35 -31 18 -52 48 -36 100 51 24 41 47 89 50 105 5 23 13 31 34 33
19 2 29 -2 33 -15 16 -52 38 -83 60 -83 19 0 35 22 94 129 70 128 70 130 64
186 l-7 57 -21 -43 c-32 -67 -60 -78 -252 -97 -123 -12 -168 -14 -171 -5 -2 6
-14 1 -28 -13 -35 -35 -109 -37 -156 -4 -14 11 -39 25 -55 31 -17 6 -24 13
-16 16 7 3 34 -9 61 -26 52 -34 108 -40 149 -17 25 14 23 17 -33 48 -21 11
-44 15 -77 11 -40 -5 -48 -3 -48 10 0 9 12 23 28 31 24 14 25 15 6 16 -45 0
-84 -13 -84 -29 0 -14 -2 -14 -10 -1 -13 21 12 33 90 42 40 4 83 3 111 -4 41
-10 53 -8 120 17 41 15 100 41 131 58 66 34 68 37 93 206 20 136 24 150 48
185 26 37 108 88 193 122 108 42 125 81 50 113 -51 23 -58 35 -42 82 8 24 9
42 3 57 -12 27 17 77 40 68 12 -5 14 1 8 33 -5 32 -3 43 14 60 26 26 42 26 74
1 14 -11 35 -20 47 -20 46 0 115 -56 125 -101 8 -33 -15 -81 -57 -119 -23 -21
-29 -36 -30 -69 0 -43 15 -71 39 -71 23 0 161 -50 202 -73 20 -11 55 -38 78
-61 46 -43 84 -128 119 -265 20 -78 34 -93 63 -67 22 20 45 20 61 1 8 -10 30
-15 61 -15 27 0 49 -4 49 -10 0 -5 -23 -10 -50 -10 -28 0 -59 -6 -70 -12 -16
-10 -24 -10 -40 0 -42 26 -48 17 -33 -50 14 -70 18 -158 17 -393 -1 -88 -1
-182 0 -210 1 -110 -68 -158 -81 -56 -5 37 -7 39 -19 24 -22 -30 -35 3 -31 77
5 85 -31 327 -70 470 -34 126 -44 150 -64 150 -10 0 -19 -3 -20 -7 0 -5 -8
-87 -17 -183 l-17 -175 22 -57 c15 -35 28 -105 38 -190 8 -73 17 -152 21 -176
l5 -43 304 3 c231 2 307 6 317 16 13 13 12 28 -107 947 -24 187 -58 453 -75
590 -18 138 -37 256 -42 263 -8 9 -296 12 -1379 12 -1356 0 -1369 0 -1389 -20
-30 -30 -36 33 90 -940 27 -212 63 -488 79 -614 16 -125 34 -233 41 -240 6 -6
66 -13 143 -17 l132 -5 -186 -2 c-139 -2 -189 1 -197 11 -9 11 -32 180 -142
1037 -16 129 -43 341 -60 470 -16 129 -30 249 -30 266 0 48 24 63 115 67 44 2
686 3 1427 3 1184 -1 1349 -3 1362 -16z m-2142 -99 c26 -17 54 -43 62 -60 14
-26 20 -29 53 -25 52 7 98 -24 122 -80 11 -24 26 -46 34 -49 11 -4 14 -21 13
-69 l-1 -63 -32 -3 c-64 -6 -71 -95 -11 -123 l31 -15 -37 -22 c-51 -30 -136
-30 -179 0 -25 18 -29 19 -24 5 10 -25 2 -21 -18 11 -10 15 -15 24 -10 20 4
-4 25 11 46 32 46 46 53 91 17 120 -21 17 -23 17 -60 -7 -39 -26 -109 -40
-151 -29 -31 7 -123 90 -142 127 -19 36 -19 112 -1 147 33 62 116 111 192 112
39 0 60 -7 96 -29z m624 -10 c-5 -8 -56 -3 -56 5 0 2 14 4 31 4 16 0 28 -4 25
-9z m110 -16 c102 -30 178 -103 198 -189 4 -17 20 -45 37 -63 16 -18 32 -45
35 -59 12 -46 -2 -114 -29 -142 -13 -15 -28 -45 -32 -67 -7 -43 -30 -75 -53
-75 -9 0 -3 12 17 35 17 20 31 44 31 55 0 17 -3 18 -30 8 -23 -7 -34 -7 -45 2
-19 16 -19 29 2 52 20 22 51 23 74 2 17 -15 19 -14 38 17 33 54 23 130 -23
168 -13 11 -17 9 -26 -15 -28 -77 -70 -114 -129 -114 -45 0 -68 15 -76 49 -15
69 71 140 156 128 35 -5 39 -3 39 17 0 12 -13 43 -29 68 -34 54 -96 94 -185
119 -34 10 -52 18 -40 18 11 1 43 -6 70 -14z m1179 -46 c11 -17 -1 -21 -15 -4
-8 9 -8 15 -2 15 6 0 14 -5 17 -11z m65 -4 c-7 -9 -15 -13 -17 -11 -7 7 7 26
19 26 6 0 6 -6 -2 -15z m-70 -70 c-7 -9 -15 -13 -17 -11 -7 7 7 26 19 26 6 0
6 -6 -2 -15z m75 4 c11 -17 -1 -21 -15 -4 -8 9 -8 15 -2 15 6 0 14 -5 17 -11z
m-1465 -129 c0 -5 -2 -10 -4 -10 -3 0 -8 5 -11 10 -3 6 -1 10 4 10 6 0 11 -4
11 -10z m1307 -162 c-3 -8 -6 -5 -6 6 -1 11 2 17 5 13 3 -3 4 -12 1 -19z m70
-3 c1 -14 0 -15 -3 -3 -3 9 -15 19 -27 22 -18 4 -18 4 3 3 17 -1 25 -8 27 -22z
m-2009 -105 c-7 -10 -14 -17 -17 -15 -4 4 18 35 25 35 2 0 -1 -9 -8 -20z m501
-75 l-2 -30 -6 30 c-7 33 -31 46 -32 18 0 -12 -2 -13 -6 -5 -3 7 1 19 7 28 7
8 10 18 6 21 -4 4 -12 1 -17 -7 -8 -11 -9 -9 -4 9 5 17 4 22 -5 16 -9 -6 -11
-4 -5 5 14 22 65 -47 64 -85z m146 42 c-18 -43 -19 -87 -4 -121 11 -24 11 -24
42 -6 16 10 37 16 46 12 55 -20 25 -79 -35 -68 -29 6 -32 4 -27 -13 9 -35 42
-56 88 -56 24 0 41 -3 38 -7 -8 -14 -68 -8 -97 10 -20 12 -35 34 -48 72 -43
121 -43 122 -19 174 24 56 39 58 16 3z m-375 29 c0 -2 -7 -7 -16 -10 -8 -3
-12 -2 -9 4 6 10 25 14 25 6z m47 -2 c-3 -3 -12 -4 -19 -1 -8 3 -5 6 6 6 11 1
17 -2 13 -5z m38 -14 c3 -6 -1 -7 -9 -4 -18 7 -21 14 -7 14 6 0 13 -4 16 -10z
m-135 -4 c0 -2 -7 -7 -16 -10 -8 -3 -12 -2 -9 4 6 10 25 14 25 6z m90 -1 c0
-7 -30 -13 -34 -7 -3 4 4 9 15 9 10 1 19 0 19 -2z m-53 -11 c-3 -3 -12 -4 -19
-1 -8 3 -5 6 6 6 11 1 17 -2 13 -5z m1968 -14 c3 -5 1 -10 -4 -10 -6 0 -11 5
-11 10 0 6 2 10 4 10 3 0 8 -4 11 -10z m-15 -36 c0 -2 -12 -4 -26 -4 -14 0
-23 4 -20 9 6 8 46 4 46 -5z m-2046 -29 c5 -22 4 -26 -4 -15 -5 8 -10 24 -10
34 0 26 6 18 14 -19z m334 -20 c-3 -3 -9 2 -12 12 -6 14 -5 15 5 6 7 -7 10
-15 7 -18z m-211 -17 c-3 -8 -6 -5 -6 6 -1 11 2 17 5 13 3 -3 4 -12 1 -19z
m203 -13 c0 -8 -2 -15 -4 -15 -2 0 -6 7 -10 15 -3 8 -1 15 4 15 6 0 10 -7 10
-15z m-497 -32 c9 -51 2 -53 -11 -3 -5 22 -6 40 -2 40 4 0 10 -17 13 -37z m23
1 c3 -22 2 -25 -6 -14 -10 15 -14 58 -5 48 3 -3 8 -18 11 -34z m178 0 c3 -8 2
-12 -4 -9 -6 3 -10 10 -10 16 0 14 7 11 14 -7z m313 -31 c-3 -10 -5 -2 -5 17
0 19 2 27 5 18 2 -10 2 -26 0 -35z m-110 -40 c-3 -10 -5 -4 -5 12 0 17 2 24 5
18 2 -7 2 -21 0 -30z m40 15 c-3 -8 -6 -5 -6 6 -1 11 2 17 5 13 3 -3 4 -12 1
-19z m-207 -3 c0 -8 -2 -15 -4 -15 -2 0 -6 7 -10 15 -3 8 -1 15 4 15 6 0 10
-7 10 -15z m-196 -23 c3 -5 -1 -9 -9 -9 -8 0 -12 4 -9 9 3 4 7 8 9 8 2 0 6 -4
9 -8z m403 -24 c-3 -7 -5 -2 -5 12 0 14 2 19 5 13 2 -7 2 -19 0 -25z m53 -65
c-11 -17 -11 -17 -6 0 3 10 7 35 8 55 l1 37 4 -37 c2 -21 -1 -46 -7 -55z
m-226 51 c18 -25 18 -25 -3 -12 -11 7 -23 18 -25 25 -9 22 8 14 28 -13z m-489
-74 c0 -18 -6 -26 -23 -28 -24 -4 -38 18 -28 44 3 9 15 14 28 12 17 -2 23 -10
23 -28z m309 -19 c-5 -6 -33 31 -33 44 -1 6 8 -1 19 -15 10 -14 17 -27 14 -29z
m25 15 c-3 -3 -11 5 -18 17 -13 21 -12 21 5 5 10 -10 16 -20 13 -22z m288 12
c-3 -8 -6 -5 -6 6 -1 11 2 17 5 13 3 -3 4 -12 1 -19z m-142 -8 c3 -5 1 -10 -4
-10 -6 0 -11 5 -11 10 0 6 2 10 4 10 3 0 8 -4 11 -10z m220 -10 c3 -5 2 -10
-4 -10 -5 0 -13 5 -16 10 -3 6 -2 10 4 10 5 0 13 -4 16 -10z m-110 -9 c3 -5 2
-12 -3 -15 -5 -3 -9 1 -9 9 0 17 3 19 12 6z m132 -13 c-3 -8 -6 -5 -6 6 -1 11
2 17 5 13 3 -3 4 -12 1 -19z m-160 6 c-3 -3 -12 -4 -19 -1 -8 3 -5 6 6 6 11 1
17 -2 13 -5z m-277 -29 c0 -8 -2 -15 -4 -15 -2 0 -6 7 -10 15 -3 8 -1 15 4 15
6 0 10 -7 10 -15z m65 3 c5 4 5 1 1 -6 -6 -10 -11 -10 -22 -1 -8 6 -14 14 -14
16 0 3 6 0 13 -6 8 -6 18 -7 22 -3z m389 -27 c-2 -3 -12 3 -22 13 -16 17 -16
18 5 5 12 -7 20 -15 17 -18z m-461 -13 c4 -10 8 -9 16 2 8 11 13 12 19 3 4 -7
19 -16 32 -22 22 -9 23 -10 5 -10 -12 -1 -26 4 -33 11 -6 6 -15 8 -19 4 -4 -4
-1 -11 7 -16 8 -6 10 -10 4 -10 -12 0 -54 34 -54 44 0 11 18 6 23 -6z m122 -6
c-3 -3 -11 0 -18 7 -9 10 -8 11 6 5 10 -3 15 -9 12 -12z m361 -34 c-9 -5 -14
-13 -11 -18 3 -4 -5 -6 -17 -2 -21 5 -21 6 -2 13 16 6 14 8 -9 8 -16 1 -26 -3
-22 -9 3 -5 1 -10 -4 -10 -12 0 -15 13 -4 23 3 4 24 6 45 5 29 -1 35 -4 24
-10z m-199 -4 c-3 -3 -12 -4 -19 -1 -8 3 -5 6 6 6 11 1 17 -2 13 -5z m104 -9
c0 -5 -5 -11 -13 -13 -10 -3 -10 -1 1 6 11 8 10 11 -5 15 -16 5 -16 6 -1 4 10
-1 18 -6 18 -12z m-420 -18 c-10 -9 -11 -8 -5 6 3 10 9 15 12 12 3 -3 0 -11
-7 -18z m222 6 c-7 -2 -21 -2 -30 0 -10 3 -4 5 12 5 17 0 24 -2 18 -5z m307
-19 c0 -2 -11 -4 -25 -4 -14 0 -25 4 -25 9 0 4 11 6 25 3 14 -2 25 -6 25 -8z
m-516 -28 c-3 -14 -11 -26 -16 -26 -5 0 -7 6 -4 13 3 6 9 20 12 30 10 27 16
13 8 -17z m-33 1 c-10 -9 -11 -8 -5 6 3 10 9 15 12 12 3 -3 0 -11 -7 -18z
m486 -28 c1 -24 1 -24 -4 1 l-6 25 -7 -25 -6 -25 -6 26 c-4 21 -1 26 11 24 9
-1 17 -12 18 -26z m-535 -51 c-8 -8 -9 -4 -5 13 4 13 8 18 11 10 2 -7 -1 -18
-6 -23z m558 7 c0 -8 -4 -15 -10 -15 -5 0 -7 7 -4 15 4 8 8 15 10 15 2 0 4 -7
4 -15z m-573 -67 c-3 -8 -6 -5 -6 6 -1 11 2 17 5 13 3 -3 4 -12 1 -19z m580
-20 c-3 -7 -5 -2 -5 12 0 14 2 19 5 13 2 -7 2 -19 0 -25z m-20 -10 c-3 -8 -6
-5 -6 6 -1 11 2 17 5 13 3 -3 4 -12 1 -19z m51 -160 c-2 -40 -9 -73 -17 -80
-11 -11 -13 -9 -7 12 14 49 18 116 7 143 -8 21 -17 27 -43 28 -26 1 -28 3 -9
6 13 3 26 14 28 24 5 16 9 12 25 -23 15 -33 19 -59 16 -110z m-274 126 c3 -8
2 -12 -4 -9 -6 3 -10 10 -10 16 0 14 7 11 14 -7z m-371 -24 c-3 -12 -8 -19
-11 -16 -5 6 5 36 12 36 2 0 2 -9 -1 -20z m24 -17 c-3 -10 -5 -4 -5 12 0 17 2
24 5 18 2 -7 2 -21 0 -30z m317 11 c3 -8 2 -12 -4 -9 -6 3 -10 10 -10 16 0 14
7 11 14 -7z m243 -35 l3 -24 -11 25 c-8 20 -12 22 -19 10 -5 -8 -10 -10 -10
-4 0 34 34 27 37 -7z m-144 -38 c28 -48 12 -37 -24 17 -18 26 -24 39 -13 30
10 -9 27 -30 37 -47z m10 44 c-3 -9 -8 -14 -10 -11 -3 3 -2 9 2 15 9 16 15 13
8 -4z m-430 -64 c9 -11 9 -13 0 -8 -6 4 -14 1 -16 -5 -3 -7 -5 7 -5 32 0 26 3
34 5 20 3 -14 10 -31 16 -39z m357 43 c0 -8 -4 -12 -10 -9 -5 3 -10 10 -10 16
0 5 5 9 10 9 6 0 10 -7 10 -16z m-19 -57 c-10 -9 -11 -8 -5 6 3 10 9 15 12 12
3 -3 0 -11 -7 -18z m204 14 c3 -5 1 -12 -5 -16 -5 -3 -10 1 -10 9 0 18 6 21
15 7z m-518 -43 c-3 -8 -6 -5 -6 6 -1 11 2 17 5 13 3 -3 4 -12 1 -19z m343 8
c0 -3 -4 -8 -10 -11 -5 -3 -10 -1 -10 4 0 6 5 11 10 11 6 0 10 -2 10 -4z m-44
-53 c-3 -4 -6 -1 -6 6 0 7 -4 9 -10 6 -6 -4 -7 1 -3 11 6 15 7 15 15 -1 6 -9
7 -19 4 -22z m-319 -5 c-3 -7 -5 -2 -5 12 0 14 2 19 5 13 2 -7 2 -19 0 -25z
m600 -40 c-3 -7 -5 -2 -5 12 0 14 2 19 5 13 2 -7 2 -19 0 -25z m-570 -80 c-3
-7 -5 -2 -5 12 0 14 2 19 5 13 2 -7 2 -19 0 -25z m600 -30 c-3 -8 -6 -5 -6 6
-1 11 2 17 5 13 3 -3 4 -12 1 -19z m0 -70 c-3 -8 -6 -5 -6 6 -1 11 2 17 5 13
3 -3 4 -12 1 -19z m20 -45 c-3 -10 -5 -2 -5 17 0 19 2 27 5 18 2 -10 2 -26 0
-35z m-573 -18 c5 -22 4 -26 -4 -15 -5 8 -10 24 -10 34 0 26 6 18 14 -19z
m2247 -94 c38 -97 41 -110 37 -177 -4 -60 -11 -83 -39 -129 -34 -57 -176 -202
-186 -191 -3 3 26 35 64 71 91 84 131 146 144 224 11 73 1 125 -46 233 -19 44
-35 82 -35 85 0 21 24 -25 61 -116z m-2570 -138 c46 -76 114 -160 203 -250 50
-51 86 -93 80 -93 -20 0 -201 196 -252 272 -60 89 -122 205 -122 227 1 9 16
-14 34 -51 19 -37 44 -84 57 -105z m945 32 c-5 -43 -34 -129 -107 -309 -87
-215 -98 -251 -85 -258 14 -8 12 -17 -19 -73 l-36 -64 23 -14 c13 -8 47 -27
77 -43 64 -34 81 -55 62 -78 -10 -12 -33 -16 -99 -16 -78 0 -87 -2 -108 -25
-29 -32 -77 -33 -214 -4 l-100 22 0 128 c0 74 4 130 10 134 6 4 10 114 10 298
0 161 4 297 8 304 4 6 7 -12 7 -40 0 -29 1 -166 3 -304 l2 -253 65 0 64 0 5
33 c24 145 60 420 66 502 l7 100 1 -83 c1 -46 -11 -178 -27 -295 -31 -222 -46
-391 -31 -347 4 14 8 38 9 53 1 15 10 45 21 65 26 47 128 461 130 527 3 97 2
102 -22 100 -16 -2 -17 -1 -4 2 14 4 16 7 7 13 -9 5 -7 9 7 12 15 4 19 2 15
-9 -5 -12 -1 -14 18 -8 13 3 19 3 13 -2 -6 -4 -14 -44 -17 -88 -3 -48 -29
-172 -65 -312 l-59 -231 60 -4 c33 -2 66 2 73 7 7 6 57 118 110 250 91 227 96
245 101 330 5 72 8 85 15 65 6 -14 7 -52 4 -85z m-770 -102 c-9 -9 -126 163
-126 186 0 7 29 -32 65 -85 36 -54 63 -99 61 -101z m357 177 c-3 -12 -8 -19
-11 -16 -5 6 5 36 12 36 2 0 2 -9 -1 -20z m27 0 c-6 -11 -13 -20 -16 -20 -2 0
0 9 6 20 6 11 13 20 16 20 2 0 0 -9 -6 -20z m45 10 c-3 -5 2 -10 11 -10 10 0
15 -3 11 -6 -3 -3 -15 -3 -28 1 -17 6 -19 9 -8 16 18 11 22 11 14 -1z m188 -7
c-7 -2 -19 -2 -25 0 -7 3 -2 5 12 5 14 0 19 -2 13 -5z m-436 -35 c-3 -8 -6 -5
-6 6 -1 11 2 17 5 13 3 -3 4 -12 1 -19z m183 -8 c0 -5 -5 -10 -11 -10 -5 0 -7
5 -4 10 3 6 8 10 11 10 2 0 4 -4 4 -10z m30 6 c0 -3 -4 -8 -10 -11 -5 -3 -10
-1 -10 4 0 6 5 11 10 11 6 0 10 -2 10 -4z m1906 -169 c-37 -60 -64 -93 -71
-85 -4 4 7 21 23 39 17 18 39 51 48 72 10 22 20 34 22 28 2 -6 -8 -30 -22 -54z
m-1173 -86 c6 -23 -10 -41 -35 -41 -21 0 -33 22 -24 45 8 22 53 19 59 -4z
m-1543 -76 c17 -20 5 -45 -20 -45 -23 0 -35 22 -26 45 7 19 30 19 46 0z m2915
-286 c11 -17 -1 -21 -15 -4 -8 9 -8 15 -2 15 6 0 14 -5 17 -11z m75 -4 c-7 -9
-15 -13 -17 -11 -7 7 7 26 19 26 6 0 6 -6 -2 -15z m-1620 -50 c52 -8 128 -15
168 -15 48 0 71 -4 67 -10 -13 -21 -346 18 -370 43 -7 6 -2 8 15 3 14 -3 68
-13 120 -21z m1545 -24 c-3 -6 -11 -11 -17 -11 -6 0 -6 6 2 15 14 17 26 13 15
-4z m75 -2 c0 -6 -4 -7 -10 -4 -5 3 -10 11 -10 16 0 6 5 7 10 4 6 -3 10 -11
10 -16z m-2855 -10 c11 -17 -1 -21 -15 -4 -8 9 -8 15 -2 15 6 0 14 -5 17 -11z
m65 -4 c-7 -9 -15 -13 -17 -11 -7 7 7 26 19 26 6 0 6 -6 -2 -15z m1079 -55
c88 -18 124 -30 89 -30 -26 0 -172 32 -188 41 -22 13 -5 11 99 -11z m-1149
-15 c-7 -9 -15 -13 -17 -11 -7 7 7 26 19 26 6 0 6 -6 -2 -15z m75 4 c11 -17
-1 -21 -15 -4 -8 9 -8 15 -2 15 6 0 14 -5 17 -11z m1390 -29 c-7 -12 -42 -12
-70 0 -15 6 -8 9 28 9 30 1 46 -3 42 -9z"/>
<path d="M2787 3423 c-10 -9 -9 -23 2 -23 5 0 11 7 15 15 5 15 -5 20 -17 8z"/>
<path d="M2830 3399 c-13 -24 -8 -34 15 -26 16 7 21 47 5 47 -5 0 -14 -9 -20
-21z"/>
<path d="M2870 3412 c0 -5 12 -14 27 -21 28 -13 28 -13 9 8 -20 22 -36 27 -36
13z"/>
<path d="M2781 3363 c-7 -103 -10 -95 37 -110 39 -14 42 -17 42 -49 0 -20 -5
-44 -11 -56 -13 -24 -10 -27 34 -35 39 -6 93 2 117 17 12 7 12 12 -4 29 -11
12 -19 39 -21 66 -2 25 -8 51 -13 58 -8 9 -6 16 9 25 21 13 25 37 8 47 -5 4
-18 0 -28 -9 -23 -21 -31 -20 -31 2 0 11 -11 24 -24 30 -19 8 -26 7 -39 -9
-22 -25 -38 -24 -44 1 -8 29 -29 24 -32 -7z"/>
<path d="M3005 3122 c-44 -23 -136 -28 -175 -9 -29 15 -35 15 -82 -4 -112 -44
-177 -97 -196 -159 -6 -19 -18 -87 -27 -149 -23 -168 -36 -184 -204 -247 l-85
-32 3 -44 c1 -24 4 -45 6 -46 8 -8 323 32 346 43 38 20 50 39 64 99 10 43 10
68 -1 127 -7 41 -16 90 -19 109 -4 24 -3 30 3 20 12 -17 42 -195 68 -392 l18
-137 68 -16 c37 -8 83 -15 102 -15 55 0 250 31 256 41 3 4 14 104 24 221 10
117 20 224 23 237 6 23 6 23 18 -7 51 -119 97 -293 125 -464 11 -67 22 -138
25 -155 6 -31 8 -33 49 -33 42 0 44 2 49 33 3 17 5 107 6 198 2 135 -2 187
-19 270 -27 131 -93 336 -123 380 -26 38 -105 89 -187 120 -75 28 -100 30
-135 11z m-131 -350 c14 -34 21 -62 17 -62 -8 0 -51 103 -51 123 0 19 10 1 34
-61z"/>
<path d="M3200 2712 c0 -22 5 -32 16 -32 11 0 14 6 9 23 -12 38 -25 43 -25 9z"/>
<path d="M3506 2682 c-2 -4 -1 -14 4 -22 7 -11 12 -12 21 -3 6 6 8 16 5 22 -8
13 -23 14 -30 3z"/>
<path d="M2080 2514 c-49 -36 -49 -37 0 -29 35 5 54 1 85 -14 47 -25 65 -26
65 -5 0 31 -20 52 -55 58 -20 4 -42 9 -48 11 -7 2 -28 -8 -47 -21z"/>
<path d="M2423 2283 c-18 -7 -16 -30 4 -37 24 -10 41 11 23 28 -8 7 -21 12
-27 9z"/>
<path d="M3050 2162 c0 -18 88 -99 121 -111 39 -14 37 -5 -5 14 -33 16 -72 50
-101 90 -8 11 -15 14 -15 7z"/>
<path d="M2190 2107 c0 -19 10 -27 26 -20 21 8 17 33 -6 33 -11 0 -20 -6 -20
-13z"/>
<path d="M3366 2078 c-9 -36 -7 -96 4 -103 6 -4 10 6 10 24 0 33 14 48 27 29
4 -7 10 -38 13 -68 6 -70 28 -74 48 -10 10 35 11 56 2 98 l-11 52 -44 0 c-36
0 -44 -4 -49 -22z"/>
<path d="M3396 784 c-15 -9 -39 -14 -52 -11 -26 5 -57 -11 -36 -20 6 -2 12 -9
12 -14 0 -6 -9 -5 -21 2 -27 14 -53 -5 -29 -22 12 -8 10 -9 -7 -4 -25 7 -106
-42 -117 -70 -5 -13 0 -15 27 -11 17 3 54 8 81 11 56 8 185 51 203 69 9 8 8
20 -4 49 -17 42 -17 42 -57 21z"/>
<path d="M2666 737 c-16 -12 -16 -14 -2 -26 9 -8 16 -18 16 -24 0 -6 -10 -1
-23 11 -38 36 -64 27 -30 -10 9 -10 11 -18 6 -18 -6 0 -17 10 -25 22 l-15 22
-42 -18 c-22 -11 -47 -26 -54 -34 -11 -14 6 -15 143 -9 85 3 163 9 173 12 12
5 17 18 17 42 0 29 -3 34 -17 28 -42 -17 -89 -17 -102 -1 -16 19 -22 20 -45 3z"/>
<path d="M3445 691 c-17 -16 -169 -59 -233 -67 -34 -3 -62 -11 -62 -15 0 -14
40 -11 151 11 103 20 170 45 177 68 4 14 -19 16 -33 3z"/>
<path d="M2623 643 c-114 -3 -133 -6 -133 -20 0 -14 18 -15 153 -11 83 3 160
9 170 13 30 13 19 25 -20 23 -21 -1 -98 -4 -170 -5z"/>
<path d="M1700 3395 c-7 -8 -16 -30 -19 -48 -5 -25 -12 -33 -34 -35 -29 -4
-37 -28 -15 -50 8 -8 8 -15 1 -24 -6 -7 -14 -31 -17 -52 -5 -23 -20 -51 -37
-68 -16 -16 -29 -31 -29 -34 0 -7 55 -32 86 -38 21 -5 46 -1 70 9 l37 15 -21
21 c-15 13 -22 32 -22 57 0 48 17 70 55 74 29 3 30 4 29 57 -1 37 -7 58 -17
66 -9 6 -21 24 -26 38 -12 31 -23 34 -41 12z"/>
<path d="M2325 3308 c-62 -22 -93 -70 -73 -113 24 -53 111 -39 153 23 54 79
15 123 -80 90z"/>
<path d="M2397 3089 c-23 -13 -22 -39 2 -39 26 0 51 10 51 21 0 16 -35 28 -53
18z"/>
<path d="M2081 2847 c-14 -18 -4 -27 31 -27 21 0 28 5 28 20 0 24 -41 28 -59
7z"/>
<path d="M1134 2639 c-3 -6 -2 -15 2 -19 12 -12 38 5 30 19 -9 14 -23 14 -32
0z"/>
<path d="M2334 1309 c-10 -17 13 -36 27 -22 12 12 4 33 -11 33 -5 0 -12 -5
-16 -11z"/>
<path d="M806 1233 c-12 -12 -6 -33 9 -33 8 0 15 6 15 14 0 17 -14 28 -24 19z"/>
</g>
</svg>
