<?xml version="1.0" standalone="no"?>
<!DOCTYPE svg PUBLIC "-//W3C//DTD SVG 20010904//EN"
 "http://www.w3.org/TR/2001/REC-SVG-20010904/DTD/svg10.dtd">
<svg version="1.0" xmlns="http://www.w3.org/2000/svg"
 width="600.000000pt" height="600.000000pt" viewBox="0 0 600.000000 600.000000"
 preserveAspectRatio="xMidYMid meet">

<g transform="translate(0.000000,600.000000) scale(0.100000,-0.100000)"
fill="#000000" stroke="none">
<path d="M3050 5121 c-41 -4 -86 -12 -98 -19 -28 -16 -52 -69 -52 -114 0 -40
31 -94 59 -103 27 -8 36 -48 22 -95 -13 -44 -49 -74 -101 -85 -19 -4 -57 -16
-83 -28 -36 -15 -45 -23 -35 -29 9 -7 8 -8 -5 -4 -12 4 -30 -3 -50 -20 -33
-27 -99 -122 -93 -133 2 -3 -216 -5 -484 -3 -538 3 -520 5 -520 -58 0 -27 -3
-29 -47 -33 -27 -2 78 -4 232 -5 203 -2 284 -5 293 -14 17 -17 17 -319 0 -336
-17 -17 -829 -17 -846 0 -18 18 -17 322 1 336 7 6 53 13 103 15 l89 3 -96 2
c-63 1 -99 -2 -107 -10 -8 -8 -12 -62 -12 -178 0 -149 2 -169 18 -183 16 -15
45 -17 195 -17 l177 0 0 -169 c0 -155 -2 -170 -18 -175 -10 -4 -31 -20 -47
-36 -28 -29 -29 -37 -35 -143 -10 -177 -32 -205 -196 -252 -154 -45 -270 -138
-316 -254 -17 -44 -22 -77 -22 -156 -1 -90 2 -107 28 -163 36 -77 113 -152
185 -178 l49 -17 -4 -105 c-2 -58 -9 -111 -15 -119 -7 -7 -29 -23 -51 -35 -38
-22 -98 -98 -98 -125 0 -36 67 -17 123 35 29 27 34 24 16 -10 -19 -35 5 -42
40 -13 17 15 31 31 31 36 0 5 17 46 38 92 22 45 51 117 67 160 26 71 30 77 56
77 15 0 39 4 53 10 25 9 37 -2 16 -15 -15 -9 -12 -544 4 -717 8 -84 17 -197
21 -250 l6 -97 -52 2 -53 2 -8 -45 c-5 -25 -15 -77 -24 -117 -18 -83 -11 -118
34 -172 24 -30 32 -33 60 -26 38 8 92 50 92 72 0 10 6 13 20 9 68 -20 63 -10
55 -100 l-7 -83 36 -31 c20 -17 50 -38 66 -47 44 -23 156 -46 185 -39 30 7 55
40 55 71 0 29 -48 83 -111 123 -85 55 -90 73 -105 370 -7 140 -13 280 -12 310
1 93 15 10 18 -105 1 -55 5 -127 9 -160 l6 -60 58 70 c32 38 79 102 105 142
l47 73 794 0 c791 0 794 0 828 -21 l34 -21 23 21 c20 19 34 21 154 21 119 0
132 -2 132 -17 0 -53 95 -209 216 -353 64 -78 74 -94 68 -117 -4 -16 -15 -37
-24 -48 -10 -11 -23 -40 -30 -64 -8 -30 -29 -62 -66 -101 -42 -44 -54 -64 -54
-88 0 -58 64 -92 148 -78 55 8 83 34 122 111 31 61 35 81 38 157 l4 88 33 0
c33 0 61 -21 51 -39 -3 -5 5 -32 19 -59 30 -60 31 -83 5 -141 -30 -64 -27 -87
13 -100 49 -16 131 3 157 36 16 20 20 41 20 97 0 39 5 106 12 149 14 93 6 106
-66 114 -39 5 -51 12 -76 43 -17 21 -30 41 -30 45 0 4 -14 24 -30 45 l-30 39
39 198 c22 109 56 302 76 428 34 213 37 242 32 385 -4 115 -10 170 -24 213
-11 31 -23 54 -28 50 -4 -5 -3 2 4 14 17 33 22 34 90 13 76 -24 120 -25 192
-4 128 38 189 135 143 227 -9 18 -32 54 -52 80 -37 51 -37 56 -17 182 16 98
-38 181 -140 215 -69 23 -111 61 -120 108 -18 89 -39 136 -78 177 -69 71 -157
81 -217 25 -16 -15 -32 -39 -36 -55 -7 -28 7 -110 32 -180 23 -66 16 -115 -16
-115 -9 0 -31 -5 -49 -11 -27 -10 -30 -13 -19 -28 12 -14 11 -14 -4 -3 -9 8
-22 11 -28 7 -7 -4 -10 99 -10 329 l0 336 303 0 c222 0 306 3 315 12 8 8 12
64 12 185 0 160 -1 173 -19 183 -12 6 -131 10 -315 10 l-296 0 0 51 c0 94 13
89 -264 89 l-243 0 -23 25 c-18 19 -26 22 -32 13 -6 -9 -8 -6 -4 7 4 15 -6 29
-47 59 -104 77 -208 112 -373 122 -57 4 -108 12 -113 18 -19 24 -21 64 -4 77
26 22 43 74 43 135 0 50 3 59 31 85 24 22 29 34 24 51 -16 51 -22 52 -195 39z
m118 -170 c2 -30 1 -65 -3 -78 -8 -35 -41 -63 -72 -63 -37 0 -89 33 -99 62 -4
13 -15 29 -25 36 -36 25 -17 62 21 42 18 -10 20 -8 20 19 0 35 12 40 95 38
l60 -2 3 -54z m-95 -150 c34 -5 41 -11 52 -44 7 -20 18 -44 25 -52 19 -23 3
-63 -32 -81 -38 -20 -137 -21 -167 -2 -40 24 -37 54 8 103 26 29 41 54 41 71
0 21 3 25 18 19 9 -5 34 -11 55 -14z m114 -113 c-3 -8 -6 -5 -6 6 -1 11 2 17
5 13 3 -3 4 -12 1 -19z m-290 -18 c1 -11 -2 -22 -6 -24 -6 -4 -7 26 -2 42 3 8
7 -1 8 -18z m372 -114 c-2 -2 -24 -6 -49 -9 -30 -4 -38 -3 -25 3 19 8 83 14
74 6z m12 -42 c11 -14 9 -19 -14 -36 -15 -11 -35 -39 -46 -63 -22 -49 -51 -70
-87 -61 -45 12 -54 95 -14 131 20 18 92 43 126 44 12 1 28 -6 35 -15z m-689
-64 c-17 -135 -4 -399 19 -384 5 3 6 -2 3 -10 -8 -22 26 -75 44 -68 10 3 13 1
8 -6 -9 -15 49 -56 108 -75 82 -28 212 -40 326 -32 120 9 127 9 196 0 47 -7
52 -5 81 24 17 17 39 52 49 77 17 45 17 47 -1 60 -10 8 -29 14 -42 14 -30 0
-29 6 7 37 33 28 42 73 13 73 -22 0 -109 -55 -155 -99 -21 -19 -38 -30 -38
-24 0 6 -26 14 -57 18 -32 4 -85 15 -117 26 -44 13 -63 15 -73 7 -10 -8 -12
-7 -8 4 7 17 -40 42 -58 32 -7 -4 -9 -4 -5 1 9 10 -28 38 -40 31 -5 -3 -10 3
-12 12 -6 38 -4 239 3 275 l8 38 117 -3 116 -3 -3 -50 c-3 -59 20 -88 69 -88
38 0 68 26 91 81 12 27 28 46 44 52 16 6 197 10 455 10 487 0 460 5 460 -81
l0 -49 -90 0 c-131 0 -130 2 -130 -198 0 -195 -3 -190 125 -194 l90 -3 3 -349
c2 -329 3 -347 20 -335 15 13 16 12 3 -4 -8 -9 -16 -15 -19 -12 -7 6 -62 -45
-62 -57 0 -5 5 -6 12 -2 7 4 8 3 4 -5 -4 -6 -12 -9 -17 -6 -5 4 -17 -10 -26
-30 -14 -29 -15 -40 -5 -55 9 -15 8 -39 -8 -117 -43 -208 -88 -338 -121 -348
-29 -10 -79 -76 -79 -107 0 -15 5 -39 10 -53 8 -21 5 -42 -10 -93 -25 -79 -33
-90 -86 -113 -23 -9 -45 -22 -48 -28 -4 -6 -29 3 -65 24 -33 19 -67 35 -76 35
-10 0 -26 -21 -42 -57 -101 -229 -163 -343 -220 -405 -38 -40 -25 -58 82 -107
52 -24 95 -47 95 -50 0 -3 -340 -5 -756 -3 -713 2 -756 3 -749 20 7 17 21 239
31 525 l6 157 29 0 c16 0 29 5 29 11 0 5 -3 8 -7 6 -5 -3 -9 9 -9 26 -1 18 -9
95 -18 172 -9 77 -20 222 -23 323 l-6 183 24 -10 c13 -5 50 -21 83 -36 60 -27
164 -55 204 -55 29 0 75 48 69 72 -3 10 -1 16 3 13 16 -10 58 209 76 386 l6
67 56 38 c64 44 98 90 108 142 12 64 -26 93 -53 41 -10 -17 -27 -41 -38 -53
-11 -12 -17 -17 -12 -12 4 6 7 18 7 28 0 26 -35 23 -53 -6 -9 -13 -34 -44 -56
-70 -26 -30 -41 -57 -41 -74 0 -15 -6 -45 -14 -67 -26 -77 -27 -93 -9 -98 15
-4 15 -5 -2 -6 -14 -1 -24 -12 -32 -38 -6 -21 -22 -60 -34 -88 -12 -27 -22
-53 -21 -56 0 -3 -18 -6 -40 -8 -23 -1 -46 -5 -52 -8 -6 -3 -7 -2 -3 2 12 14
-119 93 -174 104 -27 6 -76 11 -108 11 -57 0 -59 1 -75 35 -9 19 -23 73 -31
119 -24 149 -62 197 -167 204 l-58 4 0 164 0 164 223 0 c177 0 227 3 243 14
17 13 19 30 22 171 3 130 1 160 -13 181 l-15 24 -230 0 -230 0 0 30 c0 16 6
33 14 37 8 4 225 8 483 8 l468 0 -3 -25z m2266 -132 c8 -8 12 -59 12 -164 0
-125 -3 -155 -16 -168 -13 -14 -66 -16 -423 -16 -303 0 -410 3 -419 12 -13 13
-18 329 -5 341 3 4 194 7 423 7 310 0 419 -3 428 -12z m-1454 -192 c-3 -8 -21
-27 -40 -41 -19 -15 -32 -30 -29 -35 3 -4 24 -11 46 -15 40 -7 41 -8 35 -39
-4 -17 -19 -47 -35 -66 -27 -33 -32 -35 -82 -33 -69 3 -88 6 -84 13 2 4 5 29
6 58 3 59 19 79 110 137 58 37 82 44 73 21z m-724 -386 c0 -48 -25 -95 -66
-125 -22 -16 -56 -41 -76 -57 -58 -44 -91 -32 -68 26 10 29 101 139 108 132 2
-2 -4 -18 -13 -35 -14 -27 -14 -31 0 -31 21 0 50 31 75 80 24 48 40 52 40 10z
m1810 -143 c67 -52 75 -84 35 -150 -22 -38 -24 -49 -15 -73 6 -16 20 -38 31
-50 18 -19 18 -22 4 -34 -22 -19 -109 -25 -144 -10 l-30 12 20 31 c10 18 19
42 19 55 0 18 6 22 31 22 17 0 28 4 24 10 -3 5 -12 7 -21 3 -36 -14 -82 77
-69 136 7 31 41 91 52 91 5 -1 33 -20 63 -43z m-2738 -24 c33 -39 51 -146 27
-170 -16 -16 0 -60 32 -87 16 -14 29 -27 29 -31 0 -3 -19 -15 -42 -25 -41 -19
-137 -27 -151 -14 -3 4 0 19 8 35 18 33 20 115 3 125 -6 4 -25 10 -42 13 -31
7 -51 41 -23 41 25 0 41 30 44 79 1 25 2 47 2 49 1 1 23 2 49 2 34 0 54 -5 64
-17z m2595 -285 c-3 -7 -5 -2 -5 12 0 14 2 19 5 13 2 -7 2 -19 0 -25z m257 25
c-5 -5 -12 -12 -16 -18 -4 -6 -8 -2 -8 8 0 9 7 17 17 17 9 0 12 -3 7 -7z
m-2739 -52 c3 -5 2 -12 -3 -15 -5 -3 -9 1 -9 9 0 17 3 19 12 6z m-270 -11 c-3
-5 -12 -10 -18 -10 -7 0 -6 4 3 10 19 12 23 12 15 0z m2831 -8 c-10 -2 -22 0
-28 6 -6 6 0 7 19 4 21 -5 23 -7 9 -10z m119 8 c3 -6 -1 -7 -9 -4 -18 7 -21
14 -7 14 6 0 13 -4 16 -10z m-2765 -30 c-8 -5 -22 -9 -30 -9 -10 0 -8 3 5 9
27 12 43 12 25 0z m450 -10 c0 -5 -7 -7 -15 -4 -8 4 -12 10 -9 15 6 11 24 2
24 -11z m-557 3 c-7 -2 -19 -2 -25 0 -7 3 -2 5 12 5 14 0 19 -2 13 -5z m-183
-47 c0 -2 -8 -10 -17 -17 -16 -13 -17 -12 -4 4 13 16 21 21 21 13z m2698 -132
c8 5 -18 -212 -38 -321 -7 -35 -17 -63 -24 -64 -58 -5 -105 -2 -102 6 24 54
71 219 89 309 l22 111 22 -23 c13 -13 27 -21 31 -18z m-2797 -51 c-12 -20 -14
-14 -5 12 4 9 9 14 11 11 3 -2 0 -13 -6 -23z m3282 -30 c-7 -2 -19 -2 -25 0
-7 3 -2 5 12 5 14 0 19 -2 13 -5z m38 -73 c-44 -115 -130 -212 -228 -257 -35
-16 -116 -36 -224 -55 -123 -21 -191 -38 -248 -63 -44 -18 -82 -31 -85 -28
-12 12 -6 79 10 101 27 39 66 52 162 52 95 0 141 12 264 68 74 33 140 90 195
166 21 28 42 54 48 58 5 4 36 8 67 8 l58 0 -19 -50z m-3089 -72 c-4 -17 -7
-16 -18 12 -18 42 -18 43 5 24 11 -10 16 -24 13 -36z m2848 -12 c0 -2 -8 -10
-17 -17 -16 -13 -17 -12 -4 4 13 16 21 21 21 13z m-2843 -63 c-3 -10 -5 -4 -5
12 0 17 2 24 5 18 2 -7 2 -21 0 -30z m-310 -5 c-3 -8 -6 -5 -6 6 -1 11 2 17 5
13 3 -3 4 -12 1 -19z m3083 17 c0 -2 -10 -9 -22 -15 -22 -11 -22 -10 -4 4 21
17 26 19 26 11z m-153 -71 c-3 -3 -12 -4 -19 -1 -8 3 -5 6 6 6 11 1 17 -2 13
-5z m-40 -10 c-3 -3 -12 -4 -19 -1 -8 3 -5 6 6 6 11 1 17 -2 13 -5z m-2197
-90 c0 -8 -19 -13 -24 -6 -3 5 1 9 9 9 8 0 15 -2 15 -3z m2430 2 c0 -2 -7 -7
-16 -10 -8 -3 -12 -2 -9 4 6 10 25 14 25 6z m-2470 -24 c0 -5 -7 -17 -15 -28
-14 -18 -14 -17 -4 9 12 27 19 34 19 19z m2350 -6 c0 -7 -50 -13 -55 -7 -2 4
10 8 26 9 16 1 29 1 29 -2z m-2299 -33 c-12 -20 -14 -14 -5 12 4 9 9 14 11 11
3 -2 0 -13 -6 -23z m2206 21 c-3 -3 -12 -4 -19 -1 -8 3 -5 6 6 6 11 1 17 -2
13 -5z m-54 -11 c-7 -2 -19 -2 -25 0 -7 3 -2 5 12 5 14 0 19 -2 13 -5z m-98
-35 c-4 -13 -9 -31 -12 -42 -12 -43 -154 -263 -178 -276 -34 -18 -58 1 -26 22
11 7 21 16 21 21 0 13 -54 -20 -84 -52 -17 -17 -34 -31 -38 -31 -13 0 7 34 36
61 32 30 33 41 1 33 -42 -10 -28 4 34 35 l59 30 28 87 29 87 55 22 c72 30 83
31 75 3z m-2174 -75 c-12 -20 -14 -14 -5 12 4 9 9 14 11 11 3 -2 0 -13 -6 -23z
m132 -40 c-7 -2 -19 -2 -25 0 -7 3 -2 5 12 5 14 0 19 -2 13 -5z m2053 -8 c23
-17 38 -19 28 -3 -4 7 -3 8 5 4 6 -4 9 -11 7 -15 -3 -4 11 -15 30 -24 42 -20
47 -21 39 -4 -4 6 0 4 8 -5 17 -21 92 -50 103 -40 4 4 4 1 0 -6 -4 -6 -16
-132 -27 -280 -26 -360 -31 -341 139 -566 l105 -140 -43 -38 c-34 -30 -41 -43
-38 -63 5 -23 3 -25 -36 -25 -74 1 -116 29 -204 137 -86 107 -159 214 -188
278 -31 67 -23 240 33 748 3 31 9 57 12 57 4 0 16 -7 27 -15z m-2126 -10 c0
-7 -30 -13 -34 -7 -3 4 4 9 15 9 10 1 19 0 19 -2z m-369 -28 c-10 -9 -11 -8
-5 6 3 10 9 15 12 12 3 -3 0 -11 -7 -18z m2430 -90 c-18 -137 -41 -407 -41
-484 l0 -72 -115 -3 c-63 -2 -115 -2 -115 -1 0 2 35 49 78 106 90 117 142 216
149 280 l5 44 -46 18 c-51 20 -55 25 -27 42 10 6 40 49 67 94 26 45 50 77 52
70 2 -6 -1 -48 -7 -94z m-2328 66 c-7 -2 -19 -2 -25 0 -7 3 -2 5 12 5 14 0 19
-2 13 -5z m85 0 c-10 -2 -26 -2 -35 0 -10 3 -2 5 17 5 19 0 27 -2 18 -5z
m1977 -89 c17 -12 17 -15 1 -38 -34 -53 -5 -77 41 -34 l23 22 38 -21 c20 -11
54 -26 75 -33 36 -11 38 -14 32 -43 -18 -90 -123 -258 -242 -386 l-50 -55 -34
21 c-19 12 -89 49 -156 82 -68 34 -123 65 -123 69 0 4 18 31 39 60 64 85 127
207 205 395 l16 39 58 -33 c32 -17 67 -38 77 -45z m-2467 -18 c-29 -68 -56
-111 -65 -102 -3 2 3 16 12 30 15 23 15 26 2 32 -9 3 -36 -11 -67 -35 -53 -42
-80 -51 -80 -28 0 21 59 85 99 108 22 12 45 32 52 45 10 19 20 24 45 22 l31
-2 -29 -70z m3170 44 c46 -7 89 -9 96 -7 11 4 10 -10 0 -76 -16 -99 -16 -100
-5 -93 5 3 14 44 21 91 9 64 16 85 27 85 13 0 15 -10 9 -57 -20 -177 -127
-767 -141 -781 -16 -16 -20 25 -9 81 27 132 85 490 80 495 -8 8 -12 -7 -56
-267 -23 -134 -44 -250 -47 -258 -8 -21 -119 135 -139 196 -17 52 -17 66 1
334 l19 279 30 -6 c17 -3 68 -10 114 -16z m-2988 -871 c0 -5 -7 -57 -16 -115
l-17 -104 26 -50 c34 -65 10 -70 -28 -7 -29 50 -31 80 -10 157 8 30 15 69 15
86 0 17 3 34 7 37 10 11 23 8 23 -4z m68 -71 c3 -75 3 -76 -25 -86 l-28 -10
28 -1 c31 -1 39 -31 7 -31 -11 0 -20 -5 -20 -11 0 -6 9 -8 21 -4 20 7 59 -18
59 -37 0 -15 -48 -58 -65 -58 -8 0 -25 20 -37 45 -21 42 -21 48 -9 142 17 130
18 135 44 131 20 -3 22 -10 25 -80z m3023 -73 c29 -39 30 -95 0 -95 -9 0 -25
-3 -37 -6 -15 -4 -27 4 -48 31 l-28 37 33 34 c18 19 38 34 43 34 6 -1 23 -16
37 -35z m107 -50 c1 -1 -3 -15 -9 -31 -7 -17 -11 -77 -11 -142 1 -98 -1 -115
-18 -132 -21 -21 -81 -36 -106 -26 -17 7 -17 11 12 86 17 46 17 46 -9 104 -15
33 -25 61 -22 64 3 3 24 8 48 11 40 6 42 8 45 44 3 37 4 38 35 31 18 -3 33 -7
35 -9z m-308 -25 c14 0 20 -6 20 -23 0 -33 -10 -39 -34 -24 -12 8 -33 17 -47
20 -21 6 -25 11 -22 32 5 23 6 24 34 10 15 -8 37 -15 49 -15z m335 -52 c-5
-40 -9 -110 -10 -155 -1 -49 -7 -89 -15 -98 -23 -28 -141 -48 -155 -25 -4 6
13 10 44 10 38 0 56 6 78 24 27 24 28 26 25 117 -3 99 12 199 30 199 8 0 8
-22 3 -72z m-2894 -19 c11 -28 10 -33 -6 -45 -10 -8 -25 -14 -32 -14 -7 0 -13
-4 -13 -10 0 -10 19 -6 58 13 16 8 26 7 34 -1 9 -9 5 -15 -20 -24 -18 -7 -32
-16 -32 -20 0 -11 8 -10 47 8 25 12 37 14 45 6 8 -8 4 -14 -15 -23 -15 -7 -27
-16 -27 -21 0 -13 16 -9 43 12 l25 20 36 -34 c36 -34 48 -76 21 -76 -72 0
-210 58 -259 109 -23 24 -25 33 -20 74 7 48 13 52 75 56 21 1 29 -6 40 -30z
m2524 18 c18 -14 18 -26 -1 -86 -5 -17 -4 -22 4 -17 6 4 16 25 22 46 15 55 30
50 30 -10 0 -58 -32 -147 -62 -172 -39 -34 -208 -15 -208 23 0 7 25 38 55 70
30 32 55 65 55 74 0 8 7 31 14 50 12 28 20 35 44 35 15 0 36 -6 47 -13z
m-2607 -148 c50 -44 131 -79 197 -86 57 -6 70 -17 34 -28 -78 -25 -279 70
-279 131 0 21 9 17 48 -17z m2510 -124 c52 0 59 -2 45 -12 -28 -21 -116 -16
-147 8 -36 29 -33 41 7 21 20 -11 56 -17 95 -17z"/>
<path d="M2474 2517 c-3 -8 -4 -52 -2 -98 l3 -84 473 -3 473 -2 -3 97 -3 98
-468 3 c-384 2 -468 0 -473 -11z"/>
<path d="M4273 4203 c93 -2 241 -2 330 0 89 1 14 3 -168 3 -181 0 -254 -2
-162 -3z"/>
<path d="M4110 4120 c0 -6 78 -10 215 -10 137 0 215 4 215 10 0 6 -78 10 -215
10 -137 0 -215 -4 -215 -10z"/>
<path d="M4615 4120 c3 -5 37 -10 76 -10 39 0 69 4 69 10 0 6 -32 10 -76 10
-47 0 -73 -4 -69 -10z"/>
<path d="M3620 2131 c0 -10 261 -133 267 -127 3 3 -39 27 -93 54 -124 62 -174
83 -174 73z"/>
<path d="M3570 2056 c0 -5 268 -136 277 -136 2 0 1 5 -3 11 -7 12 -248 129
-265 129 -5 0 -9 -2 -9 -4z"/>
<path d="M3600 1955 c0 -4 146 -82 193 -103 4 -2 7 1 7 6 0 6 -40 31 -89 56
-83 43 -111 53 -111 41z"/>
<path d="M3500 1916 c0 -7 232 -126 244 -126 19 0 -9 18 -115 74 -96 51 -129
64 -129 52z"/>
<path d="M3460 1843 c0 -5 51 -33 113 -63 137 -66 138 -67 107 -39 -20 18
-200 109 -216 109 -2 0 -4 -3 -4 -7z"/>
<path d="M3945 4970 c10 -11 20 -18 23 -15 7 6 -18 35 -31 35 -5 0 -2 -9 8
-20z"/>
<path d="M4030 4975 c-20 -24 -6 -28 15 -5 10 11 13 20 8 20 -6 0 -16 -7 -23
-15z"/>
<path d="M3945 4890 c-10 -11 -13 -20 -8 -20 13 0 38 29 31 35 -3 3 -13 -4
-23 -15z"/>
<path d="M4020 4903 c0 -13 29 -38 35 -31 3 3 -4 13 -15 23 -11 10 -20 13 -20
8z"/>
<path d="M4196 4855 c-35 -35 0 -93 48 -81 29 7 45 49 29 75 -14 22 -57 25
-77 6z m59 -35 c0 -18 -6 -26 -23 -28 -13 -2 -25 3 -28 12 -10 26 4 48 28 44
17 -2 23 -10 23 -28z"/>
<path d="M4297 4668 c-25 -13 -22 -55 4 -63 28 -9 53 16 45 43 -8 25 -27 33
-49 20z m29 -19 c10 -17 -13 -36 -27 -22 -12 12 -4 33 11 33 5 0 12 -5 16 -11z"/>
<path d="M5025 4520 c-76 -77 -136 -143 -132 -147 4 -4 16 2 25 13 10 10 72
74 137 142 65 67 116 124 114 127 -3 2 -68 -58 -144 -135z"/>
<path d="M4841 4513 c-12 -43 -24 -86 -27 -95 -3 -10 -1 -18 4 -18 5 0 19 36
31 80 12 45 24 87 28 95 3 8 1 15 -4 15 -6 0 -20 -35 -32 -77z"/>
<path d="M4981 4298 c-30 -18 -50 -33 -45 -35 14 -5 104 46 104 58 0 12 3 13
-59 -23z"/>
<path d="M1350 4260 c0 -6 115 -10 326 -10 214 0 323 3 319 10 -4 6 -123 10
-326 10 -206 0 -319 -4 -319 -10z"/>
<path d="M1351 4175 c7 -6 420 -8 427 -1 3 3 -93 6 -213 6 -120 0 -216 -2
-214 -5z"/>
<path d="M1853 4174 c3 -3 36 -6 72 -6 36 0 69 3 72 6 4 3 -29 6 -72 6 -43 0
-76 -3 -72 -6z"/>
<path d="M996 3895 c-42 -43 -20 -105 38 -105 19 0 40 8 49 18 19 21 22 42 7
42 -5 0 -10 -7 -10 -15 0 -19 -36 -38 -60 -30 -11 4 -23 18 -26 32 -6 21 -1
31 22 50 21 17 24 23 12 23 -9 0 -23 -7 -32 -15z"/>
<path d="M2325 1330 c20 -22 31 -20 22 5 -4 8 -14 15 -23 15 -16 0 -16 -2 1
-20z"/>
<path d="M2410 1335 c-20 -24 -6 -28 15 -5 10 11 13 20 8 20 -6 0 -16 -7 -23
-15z"/>
<path d="M2325 1250 c-10 -11 -13 -20 -8 -20 13 0 38 29 31 35 -3 3 -13 -4
-23 -15z"/>
<path d="M2400 1261 c0 -13 29 -35 37 -28 7 8 -15 37 -28 37 -5 0 -9 -4 -9 -9z"/>
</g>
</svg>
